<svg height="512" viewBox="0 0 64 64" width="512" xmlns="http://www.w3.org/2000/svg"><g id="Paint_Roller" data-name="Paint Roller"><path d="m60.28 33.76-7.07 7.07a2 2 0 0 1 -2.83 0l-24.04-24.04a2 2 0 0 1 0-2.83l7.07-7.07a2 2 0 0 1 2.83 0l24.04 24.04a1.986 1.986 0 0 1 0 2.83z" fill="#e6e7e8"/><path d="m59.7 30.345-6.49 6.485a2 2 0 0 1 -2.83 0l-23.455-23.455-.585.585a2 2 0 0 0 0 2.83l24.04 24.04a2 2 0 0 0 2.83 0l7.07-7.07a1.986 1.986 0 0 0 0-2.83z" fill="#d1d3d4"/><path d="m33.414 38a4 4 0 0 0 0-5.657l-16.263-16.263a1 1 0 0 1 0-1.415l6.364-6.365a1 1 0 0 1 1.414 0l3.535 3.535 2.829-2.828-4.243-4.241a4 4 0 0 0 -5.657 0l-7.778 7.778a4 4 0 0 0 0 5.657l16.264 16.263a1 1 0 0 1 0 1.415l-2.829 2.828 2.829 2.829z" fill="#ed1c24"/><path d="m28.464 11.837 2.829-2.828z" fill="#9bc9ff"/><path d="m8.665 55.678 4.243 4.242a2 2 0 0 0 2.829 0l13.435-13.435-3.536-3.535-3.536-3.536-13.435 13.435a2 2 0 0 0 0 2.829z" fill="#58595b"/><path d="m25.636 42.95-3.535-3.536-2 2 3.535 3.536 3.536 3.535 2-2z" fill="#414042"/><path d="m25.636 42.95 4.95 4.949 2.828-2.828-3.535-3.535-2.829-2.829-3.535-3.535-2.829 2.828 1.415 1.414z" fill="#006df0"/><path d="m22.101 39.414 3.535 3.536z" fill="#9bc9ff"/><path d="m56.749 40.121a1 1 0 0 0 1.414 0l1.414-1.414a1 1 0 0 0 0-1.414l-1.414-1.414-2.828 2.828z" fill="#ed1c24"/><g fill="#bcbec0"><path d="m35.536 10.423a1 1 0 1 0 -1.414 1.414l17.678 17.678a1 1 0 0 0 1.413-1.415z"/><path d="m56.042 30.929a1 1 0 0 0 -1.415 1.414l.707.707a1 1 0 0 0 1.415-1.414z"/></g></g></svg>